#!OML:ASF H:\MichaelJackson\Top Level 1\Subject 1\Session 1\male.ASF
:FULLY-SPECIFIED
:DEGREES
120
root 21.8061 16.4932 -1.4706 10.5056 -5.79522 -14.0469
lowerback -1.59624 6.83182 6.6414
upperback -0.525298 8.99961 0.502538
thorax 1.27608 4.52197 -2.8311
lowerneck -7.57237 4.04799 10.4209
upperneck 3.45125 4.55691 -3.49711
head 2.85213 2.31302 -2.79529
rclavicle -1.47697e-013 2.70347e-014
rhumerus -31.5258 -8.62065 -77.0068
rradius 50.055
rwrist 2.78481
rhand -39.7333 -33.8355
rfingers 7.12502
rthumb -12.7107 -63.4287
lclavicle -1.47697e-013 2.70347e-014
lhumerus -54.3066 -13.4491 101.352
lradius 40.2126
lwrist 9.86025
lhand -2.37128 9.17155
lfingers 7.12502
lthumb 23.3172 37.7794
rfemur 5.24287 -5.63239 31.9446
rtibia 12.7839
rfoot -21.4869 6.54019
rtoes -9.13684
lfemur -41.3825 7.26083 -4.68079
ltibia 19.6804
lfoot -24.3453 39.1077
ltoes 45.193
121
root 21.8255 16.4797 -1.30233 10.3368 -5.5353 -13.9988
lowerback -1.4606 6.82923 6.33411
upperback -0.486864 9.01164 0.355399
thorax 1.21881 4.52721 -2.83136
lowerneck -7.58968 4.09482 10.3391
upperneck 3.21621 4.61597 -3.31774
head 2.7692 2.34114 -2.71375
rclavicle -5.76476e-015 3.10104e-014
rhumerus -32.074 -6.89692 -77.4953
rradius 51.0481
rwrist 4.50438
rhand -35.9879 -26.4771
rfingers 7.12502
rthumb -9.0981 -56.2609
lclavicle -5.76476e-015 3.10104e-014
lhumerus -53.7479 -13.1304 100.455
lradius 40.323
lwrist 9.75835
lhand -2.28905 8.9508
lfingers 7.12502
lthumb 23.3961 37.5487
rfemur 6.02077 -5.61422 31.7555
rtibia 12.7001
rfoot -21.1779 6.26626
rtoes -10.4954
lfemur -41.572 6.61764 -4.40353
ltibia 21.0768
lfoot -25.0879 40.1158
ltoes 47.0835
122
root 21.8443 16.4702 -1.13315 10.1605 -5.13671 -13.8985
lowerback -1.31367 6.7952 5.98173
upperback -0.457435 8.98248 0.197991
thorax 1.13673 4.51097 -2.82262
lowerneck -7.58419 4.12237 10.2206
upperneck 2.99811 4.6558 -3.13096
head 2.68477 2.35989 -2.62467
rclavicle 2.0276e-014 -1.98785e-014
rhumerus -32.7028 -5.52328 -77.925
rradius 52.1505
rwrist 5.97844
rhand -31.6215 -19.9498
rfingers 7.12502
rthumb -4.88325 -49.8735
lclavicle 2.0276e-014 -1.98785e-014
lhumerus -53.1488 -12.7873 99.5058
lradius 40.3796
lwrist 9.57107
lhand -2.14834 8.75645
lfingers 7.12502
lthumb 23.5311 37.3371
rfemur 6.62318 -5.66206 31.5412
rtibia 12.9253
rfoot -20.8695 5.99635
rtoes -11.877
lfemur -41.8424 5.82105 -4.1962
ltibia 22.6246
lfoot -25.7032 41.061
ltoes 48.4275
123
root 21.8628 16.4617 -0.963247 9.98947 -4.5853 -13.7518
lowerback -1.16153 6.71721 5.5861
upperback -0.442258 8.89461 0.0444953
thorax 1.02465 4.4643 -2.79158
lowerneck -7.53868 4.13675 10.0309
upperneck 2.80708 4.68892 -2.9233
head 2.59828 2.37583 -2.51662
rclavicle 4.81059e-014 2.70347e-014
rhumerus -33.3996 -4.49092 -78.3013
rradius 53.3305
rwrist 6.98406
rhand -26.6656 -14.4414
rfingers 7.12502
rthumb -0.0971378 -44.4211
lclavicle 4.81059e-014 2.70347e-014
lhumerus -52.5137 -12.3629 98.5058
lradius 40.3947
lwrist 9.27149
lhand -2.06217 8.56988
lfingers 7.12502
lthumb 23.6138 37.1399
rfemur 6.97358 -5.786 31.3123
rtibia 13.5862
rfoot -20.6 5.73825
rtoes -13.2133
lfemur -43.0764 11.1699 -7.79521
ltibia 24.2532
lfoot -17.9362 37.4305
ltoes 45.3352
124
root 21.881 16.4529 -0.793077 9.83186 -3.88923 -13.5765
lowerback -1.02011 6.62121 5.16647
upperback -0.432335 8.7807 -0.110944
thorax 0.908171 4.4045 -2.74908
lowerneck -7.47064 4.12684 9.79848
upperneck 2.61861 4.6962 -2.70697
head 2.50502 2.37881 -2.40015
rclavicle 8.42847e-014 2.22639e-014
rhumerus -34.1618 -3.88788 -78.6191
rradius 54.557
rwrist 7.34506
rhand -21.1689 -10.0536
rfingers 7.12502
rthumb 5.21126 -39.9695
lclavicle 8.42847e-014 2.22639e-014
lhumerus -51.8303 -11.9191 97.4699
lradius 40.388
lwrist 8.92906
lhand -2.07393 8.37749
lfingers 7.12502
lthumb 23.6025 36.9489
rfemur 7.03535 -5.99738 31.0855
rtibia 14.7382
rfoot -20.3685 5.498
rtoes -14.4746
lfemur -44.4097 15.2306 -10.7769
ltibia 25.9049
lfoot -12.5893 33.7862
ltoes 42.2709
125
root 21.8994 16.4447 -0.622551 9.68371 -3.06793 -13.388
lowerback -0.89607 6.50823 4.7295
upperback -0.412326 8.64128 -0.253113
thorax 0.80594 4.33249 -2.68092
lowerneck -7.39195 4.09983 9.50555
upperneck 2.43068 4.68738 -2.48131
head 2.40682 2.37341 -2.27123
rclavicle -4.19436e-014 4.77083e-015
rhumerus -34.9701 -3.68678 -78.877
rradius 55.7905
rwrist 6.94711
rhand -15.2564 -6.88936
rfingers 7.12502
rthumb 10.9174 -36.5855
lclavicle -4.19436e-014 4.77083e-015
lhumerus -51.0865 -11.4231 96.4136
lradius 40.3754
lwrist 8.56874
lhand -2.25778 8.16375
lfingers 7.12502
lthumb 23.4261 36.7578
rfemur 6.81499 -6.30446 30.8692
rtibia 16.3717
rfoot -20.1334 5.3072
rtoes -15.6988
lfemur -45.6735 18.2289 -13.2102
ltibia 27.5155
lfoot -9.17073 30.3543
ltoes 39.4786
126
root 21.9185 16.4378 -0.451248 9.54109 -2.14158 -13.2067
lowerback -0.784386 6.39201 4.30741
upperback -0.382252 8.49504 -0.387433
thorax 0.722583 4.25773 -2.6094
lowerneck -7.31748 4.04877 9.16875
upperneck 2.25407 4.64939 -2.23774
head 2.30982 2.35383 -2.13068
rclavicle 5.96354e-016 2.22639e-014
rhumerus -35.8459 -3.89027 -79.0804
rradius 56.9907
rwrist 5.81502
rhand -9.20161 -4.96181
rfingers 7.12502
rthumb 16.7524 -34.259
lclavicle 5.96354e-016 2.22639e-014
lhumerus -50.2996 -10.8989 95.3472
lradius 40.3986
lwrist 8.26472
lhand -2.69347 7.95184
lfingers 7.12502
lthumb 23.0081 36.5986
rfemur 6.35859 -6.7281 30.6722
rtibia 18.3983
rfoot -19.816 5.20883
rtoes -16.8904
lfemur -46.7685 20.3708 -15.143
ltibia 29.0468
lfoot -7.16311 27.2922
ltoes 37.1741
127
root 21.9392 16.4334 -0.279031 9.40561 -1.12418 -13.05
lowerback -0.677585 6.27882 3.93021
upperback -0.345217 8.35097 -0.518225
thorax 0.656328 4.18462 -2.55583
lowerneck -7.2638 3.97387 8.80369
upperneck 2.09595 4.57919 -1.97229
head 2.22006 2.31895 -1.98002
rclavicle 6.36111e-014 -4.6118e-014
rhumerus -36.7898 -4.4796 -79.2273
rradius 58.123
rwrist 4.01189
rhand -3.39392 -4.22947
rfingers 7.12502
rthumb 22.3359 -32.9584
lclavicle 6.36111e-014 -4.6118e-014
lhumerus -49.4869 -10.3596 94.2868
lradius 40.4967
lwrist 8.05698
lhand -3.44446 7.80547
lfingers 7.12502
lthumb 22.2874 36.5402
rfemur 5.70631 -7.28495 30.5021
rtibia 20.7164
rfoot -19.3171 5.23602
rtoes -18.0421
lfemur -47.6471 21.8358 -16.632
ltibia 30.4506
lfoot -6.01883 24.6652
ltoes 35.42
128
root 21.9626 16.4328 -0.105377 9.27601 -0.0510525 -12.9345
lowerback -0.576919 6.18551 3.62303
upperback -0.302545 8.23175 -0.649218
thorax 0.611865 4.12455 -2.53686
lowerneck -7.24204 3.86972 8.43604
upperneck 1.9625 4.46658 -1.6932
head 2.14261 2.26385 -1.827
rclavicle 7.35503e-014 -3.18055e-015
rhumerus -37.8 -5.42129 -79.3069
rradius 59.1468
rwrist 1.71056
rhand 1.66945 -4.50318
rfingers 7.12502
rthumb 27.1884 -32.5642
lclavicle 7.35503e-014 -3.18055e-015
lhumerus -48.6699 -9.82696 93.2521
lradius 40.6957
lwrist 8.00041
lhand -4.50812 7.64201
lfingers 7.12502
lthumb 21.266 36.4954
rfemur 4.89352 -7.97167 30.3574
rtibia 23.2449
rfoot -18.5348 5.42538
rtoes -19.1306
lfemur -48.291 22.798 -17.7425
ltibia 31.6958
lfoot -5.36629 22.4542
ltoes 34.1281
129
root 21.9896 16.4373 0.0697741 9.15914 1.07388 -12.8586
lowerback -0.488577 6.10426 3.3899
upperback -0.258022 8.12714 -0.777269
thorax 0.587535 4.07226 -2.55184
lowerneck -7.25932 3.74339 8.06348
upperneck 1.8597 4.3209 -1.40287
head 2.08162 2.1932 -1.67135
rclavicle -9.89948e-014 -4.77083e-015
rhumerus -38.8607 -6.62158 -79.3125
rradius 60.0371
rwrist -0.902498
rhand 5.56862 -5.49587
rfingers 7.12502
rthumb 30.9122 -32.9141
lclavicle -9.89948e-014 -4.77083e-015
lhumerus -47.8696 -9.28083 92.2621
lradius 41.0285
lwrist 8.1194
lhand -5.87089 7.5232
lfingers 7.12502
lthumb 19.9565 36.5185
rfemur 3.92586 -8.78819 30.2323
rtibia 25.9382
rfoot -17.3904 5.77071
rtoes -20.1304
lfemur -48.7189 23.3765 -18.5628
ltibia 32.7617
lfoot -4.97539 20.6169
ltoes 33.0572
